<svg width="64" height="64" viewBox="0 0 64 64" fill="none" xmlns="http://www.w3.org/2000/svg">
<path d="M26.9443 6.5H37.0557C39.1388 6.5 41.0429 7.67697 41.9746 9.54004L43.2109 12.0127C43.9732 13.5372 45.5319 14.5 47.2363 14.5H52C57.2467 14.5 61.5 18.7533 61.5 24V44C61.5 49.2467 57.2467 53.5 52 53.5H12C6.7533 53.5 2.5 49.2467 2.5 44V24C2.5 18.7533 6.7533 14.5 12 14.5H16.7637C18.4681 14.5 20.0268 13.5372 20.7891 12.0127L22.0254 9.54004C22.9571 7.67697 24.8612 6.5 26.9443 6.5Z" stroke="black" stroke-width="5"/>
<circle cx="32" cy="33" r="8.5" stroke="black" stroke-width="5"/>
</svg>
