<svg width="64" height="64" viewBox="0 0 64 64" fill="none" xmlns="http://www.w3.org/2000/svg">
<path d="M4 26C4 21.5817 7.58172 18 12 18H15.7352C17.1403 18 18.4423 17.2628 19.1652 16.058L22.8348 9.94202C23.5577 8.7372 24.8597 8 26.2648 8H37.7352C39.1403 8 40.4423 8.7372 41.1652 9.94202L44.8348 16.058C45.5577 17.2628 46.8597 18 48.2648 18H52C56.4183 18 60 21.5817 60 26V48C60 52.4183 56.4183 56 52 56H12C7.58172 56 4 52.4183 4 48V26Z" stroke="black" stroke-width="5"/>
<circle cx="32" cy="36" r="9" stroke="black" stroke-width="5"/>
</svg>
