<svg width="64" height="64" viewBox="0 0 64 64" fill="none" xmlns="http://www.w3.org/2000/svg">
<path d="M4 26C4 21.5817 7.58172 18 12 18H17C17.6295 18 18.2223 17.7036 18.6 17.2L22.8 11.6C23.5554 10.5928 24.741 10 26 10H38C39.259 10 40.4446 10.5928 41.2 11.6L45.4 17.2C45.7777 17.7036 46.3705 18 47 18H52C56.4183 18 60 21.5817 60 26V48C60 52.4183 56.4183 56 52 56H12C7.58172 56 4 52.4183 4 48V26Z" stroke="black" stroke-width="5"/>
<circle cx="32" cy="36" r="9" stroke="black" stroke-width="5"/>
</svg>
