<svg width="64" height="64" viewBox="0 0 64 64" fill="none" xmlns="http://www.w3.org/2000/svg">
<g clip-path="url(#clip0_2294_25)">
<path d="M32 2.5C48.2924 2.5 61.5 15.7076 61.5 32C61.5 48.2924 48.2924 61.5 32 61.5C15.7076 61.5 2.5 48.2924 2.5 32C2.5 15.7076 15.7076 2.5 32 2.5Z" stroke="black" stroke-width="5"/>
<path d="M32 16C38.7146 16 44.4623 20.1365 46.8359 26H41.2178C39.2549 22.9906 35.8609 21 32 21C25.9249 21 21 25.9249 21 32C21 38.0751 25.9249 43 32 43C35.8609 43 39.2549 41.0094 41.2178 38H46.8359C44.4623 43.8635 38.7146 48 32 48C23.1634 48 16 40.8366 16 32C16 23.1634 23.1634 16 32 16Z" fill="black"/>
</g>
<defs>
<clipPath id="clip0_2294_25">
<rect width="64" height="64" fill="white"/>
</clipPath>
</defs>
</svg>
