<svg width="64" height="64" viewBox="0 0 64 64" fill="none" xmlns="http://www.w3.org/2000/svg">
<path d="M32 4.5C47.1878 4.5 59.5 16.8122 59.5 32C59.5 47.1878 47.1878 59.5 32 59.5C16.8122 59.5 4.5 47.1878 4.5 32C4.5 16.8122 16.8122 4.5 32 4.5Z" stroke="black" stroke-width="5"/>
<path d="M32.3711 18.0049C38.0946 18.1497 42.9643 21.7251 45 26.75H39.3252C37.6901 24.4804 35.0249 23 32.0098 23C27.0306 23 23 27.0327 23 32C23 36.9673 27.0306 41 32.0098 41C35.0249 41 37.6901 39.5196 39.3252 37.25H45C42.9217 42.3805 37.889 45.9999 32.0098 46L31.6484 45.9951C24.0781 45.8037 18 39.6113 18 32C18 24.268 24.2725 18 32.0098 18L32.3711 18.0049Z" fill="black"/>
</svg>
