<svg width="64" height="64" viewBox="0 0 64 64" fill="none" xmlns="http://www.w3.org/2000/svg">
<g clip-path="url(#clip0_2266_10)">
<path d="M52.4121 6.97363C52.7991 8.24576 53 9.56855 53 10.9014V11.8457L52.5195 15.6895L52.3848 16.7666L53.0791 17.6006L54.3994 19.1846C55.0596 19.9769 55.6266 20.8432 56.0879 21.7656C57.0165 23.6229 57.5 25.6716 57.5 27.748V28.9189C57.5 30.5289 57.2118 32.1248 56.6504 33.6318L56.5342 33.9326L56.2979 34.5244C55.9942 35.2836 55.622 36.0136 55.1865 36.7051L54.9961 36.999L54.7988 37.2949C54.3057 38.0346 53.7409 38.724 53.1123 39.3525L52.0684 40.3965C51.1707 41.2942 50.1512 42.0597 49.041 42.6719L48.5596 42.9248L47.5361 43.4365C47.2888 43.5602 47.0353 43.6709 46.7764 43.7676L46.5156 43.8594L45.5498 44.1816C44.4565 44.5461 43.4501 45.1286 42.5918 45.8926L42.2334 46.2314C41.7635 46.7014 41.5 47.3386 41.5 48.002V85C41.5 89.6944 37.6944 93.5 33 93.5C28.3056 93.5 24.5 89.6944 24.5 85V48.7812C24.5 47.2757 23.5395 45.9504 22.1357 45.4697L21.8486 45.3857L20.3105 45.001C19.4744 44.7919 18.6605 44.5026 17.8799 44.1387L17.5469 43.9785L17.4404 43.9248C16.3048 43.357 15.2561 42.6321 14.3242 41.7725L13.9316 41.3965L13.5723 41.0361C13.2336 40.6975 12.9129 40.3413 12.6123 39.9688L12.3174 39.5908L11.5576 38.5771C10.796 37.5616 10.1824 36.4442 9.7334 35.2588L9.55078 34.7461L9.19238 33.6729C8.73353 32.2963 8.5 30.8543 8.5 29.4033V28.5762C8.50003 27.3181 8.67738 26.0672 9.02637 24.8604L9.18652 24.3467C9.80224 22.4995 10.8134 20.8104 12.1475 19.3965L12.418 19.1172L13.6514 17.8838L13.0088 13.3857C12.7309 11.4408 12.8814 9.46015 13.4473 7.58203L13.5664 7.20703L13.5811 7.16211L14.7461 7.55078C15.9505 7.95226 17.0917 8.52103 18.1357 9.24023L18.5771 9.55762L20.5 11L21.5479 11.7861L22.791 11.3721L25.6484 10.4189L28.9365 9.76172C29.8082 9.58739 30.6951 9.50002 31.584 9.5H32.416C33.1937 9.50002 33.9696 9.56761 34.7354 9.70117L35.0635 9.76172L38.3506 10.4189L41.209 11.3721L42.4521 11.7861L43.5 11L44.915 9.93848C46.2646 8.92633 47.7911 8.17686 49.415 7.72754L49.7412 7.6416L52.4121 6.97363Z" stroke="black" stroke-width="5"/>
<path d="M2.00003 48V48C6.51423 46.8715 11.1363 49.4087 12.6077 53.823L12.6667 54C13.4191 56.2571 15.7824 57.5544 18.0905 56.9774L22 56" stroke="black" stroke-width="5" stroke-linecap="round"/>
</g>
<defs>
<clipPath id="clip0_2266_10">
<rect width="64" height="64" fill="white"/>
</clipPath>
</defs>
</svg>
