<svg width="64" height="64" viewBox="0 0 64 64" fill="none" xmlns="http://www.w3.org/2000/svg">
<path fill-rule="evenodd" clip-rule="evenodd" d="M32 1.5C23.9919 1.5 17.5 7.99187 17.5 16V24H22.5V16C22.5 10.7533 26.7533 6.5 32 6.5C37.2467 6.5 41.5 10.7533 41.5 16V24H46.5V16C46.5 7.99187 40.0081 1.5 32 1.5Z" fill="black"/>
<path fill-rule="evenodd" clip-rule="evenodd" d="M20 20C13.3726 20 8 25.3726 8 32V52C8 58.6274 13.3726 64 20 64H44C50.6274 64 56 58.6274 56 52V32C56 25.3726 50.6274 20 44 20H20ZM29.5 46C29.5 47.3807 30.6193 48.5 32 48.5C33.3807 48.5 34.5 47.3807 34.5 46V38C34.5 36.6193 33.3807 35.5 32 35.5C30.6193 35.5 29.5 36.6193 29.5 38V46Z" fill="black"/>
</svg>
