<svg width="64" height="64" viewBox="0 0 64 64" fill="none" xmlns="http://www.w3.org/2000/svg">
<g clip-path="url(#clip0_2293_229)">
<path d="M32 28C38.6274 28 44 22.6274 44 16C44 9.37258 38.6274 4 32 4C25.3726 4 20 9.37258 20 16C20 22.6274 25.3726 28 32 28Z" stroke="black" stroke-width="5"/>
<path d="M60.5 64C60.5 79.7401 47.7401 92.5 32 92.5C16.2599 92.5 3.5 79.7401 3.5 64H8.5C8.5 76.9787 19.0213 87.5 32 87.5C44.9787 87.5 55.5 76.9787 55.5 64H60.5ZM32 35.5C46.3824 35.5 58.2748 46.1538 60.2197 60H55.1592C53.2602 48.9268 43.615 40.5 32 40.5C20.385 40.5 10.7398 48.9268 8.84082 60H3.78027C5.72515 46.1538 17.6176 35.5 32 35.5Z" fill="black"/>
</g>
<defs>
<clipPath id="clip0_2293_229">
<rect width="64" height="64" fill="white"/>
</clipPath>
</defs>
</svg>
