<svg width="64" height="64" viewBox="0 0 64 64" fill="none" xmlns="http://www.w3.org/2000/svg">
<path d="M36.7499 5.62918L52.4627 14.701C55.402 16.398 57.2127 19.5342 57.2127 22.9282V41.0718C57.2127 44.4658 55.402 47.602 52.4627 49.299L36.7499 58.3708C33.8106 60.0678 30.1892 60.0678 27.2499 58.3708L11.5371 49.299C8.5978 47.602 6.78711 44.4658 6.78711 41.0718V22.9282C6.78711 19.5342 8.5978 16.398 11.5371 14.701L27.2499 5.62918C30.1892 3.93216 33.8106 3.93216 36.7499 5.62918Z" stroke="black" stroke-width="5"/>
<path d="M32 42.5C37.799 42.5 42.5 37.799 42.5 32C42.5 26.201 37.799 21.5 32 21.5C26.201 21.5 21.5 26.201 21.5 32C21.5 37.799 26.201 42.5 32 42.5Z" stroke="black" stroke-width="5"/>
</svg>
