<svg width="64" height="64" viewBox="0 0 64 64" fill="none" xmlns="http://www.w3.org/2000/svg">
<path d="M4.00012 60L60.0001 3.99987" stroke="black" stroke-width="5" stroke-linecap="round"/>
<path d="M32 28C33.1734 28 34.2871 28.2542 35.291 28.708L30.7012 33.2988C30.0889 33.5938 29.5938 34.0889 29.2988 34.7012L24.708 39.291C24.2542 38.2871 24 37.1734 24 36C24 31.5817 27.5817 28 32 28Z" fill="black"/>
<path d="M59.8203 20.1787C62.4798 24.845 64 30.2448 64 36L63.9893 36.8262C63.7736 45.3345 60.2357 53.0161 54.626 58.626L51.0918 55.0918C55.9778 50.2058 59 43.4558 59 36C59 31.6382 57.9637 27.5189 56.127 23.8721L59.8203 20.1787ZM32.8262 4.01074C40.322 4.20071 47.1757 6.97003 52.5371 11.4619L48.9863 15.0127C44.3469 11.2531 38.4368 9 32 9C17.0883 9 5 21.0883 5 36C5 42.4367 7.25408 48.346 11.0137 52.9854L7.46191 56.5371C2.96992 51.1758 0.200708 44.322 0.0107422 36.8262L0 36C0 18.3269 14.3269 4 32 4L32.8262 4.01074Z" fill="black"/>
<path d="M50.8096 29.1895C51.5794 31.3153 52 33.6085 52 36C52 41.5228 49.7619 46.5233 46.1426 50.1426L42.6064 46.6064C45.3209 43.892 47 40.1421 47 36C47 35.0612 46.9121 34.1429 46.7471 33.252L50.8096 29.1895ZM32 16C36.5025 16 40.6573 17.4882 44 19.999L40.417 23.582C38.0171 21.9522 35.1197 21 32 21C23.7157 21 17 27.7157 17 36C17 39.1197 17.9521 42.0171 19.582 44.417L15.998 48.001C13.4873 44.6582 12 40.5026 12 36C12 24.9543 20.9543 16 32 16Z" fill="black"/>
</svg>
