<svg width="64" height="64" viewBox="0 0 64 64" fill="none" xmlns="http://www.w3.org/2000/svg">
<path d="M32 30.5C35.0376 30.5 37.5 32.9624 37.5 36C37.5 39.0376 35.0376 41.5 32 41.5C28.9624 41.5 26.5 39.0376 26.5 36C26.5 32.9624 28.9624 30.5 32 30.5Z" stroke="black" stroke-width="5"/>
<path d="M32 16C43.0457 16 52 24.9543 52 36C52 41.5228 49.7619 46.5233 46.1426 50.1426L42.6064 46.6064C45.3209 43.892 47 40.1421 47 36C47 27.7157 40.2843 21 32 21C23.7157 21 17 27.7157 17 36C17 40.1421 18.6791 43.892 21.3936 46.6064L17.8574 50.1426C14.2381 46.5233 12 41.5228 12 36C12 24.9543 20.9543 16 32 16Z" fill="black"/>
<path d="M32.8262 4.01074C50.1175 4.44895 64 18.6031 64 36L63.9893 36.8262C63.7736 45.3345 60.2357 53.0161 54.626 58.626L51.0918 55.0918C55.9778 50.2058 59 43.4558 59 36C59 21.0883 46.9117 9 32 9C17.0883 9 5 21.0883 5 36C5 43.4558 8.02216 50.2058 12.9082 55.0918L9.37305 58.627C3.76327 53.0172 0.226368 45.3345 0.0107422 36.8262L0 36C0 18.3269 14.3269 4 32 4L32.8262 4.01074Z" fill="black"/>
</svg>
