<svg width="64" height="64" viewBox="0 0 64 64" fill="none" xmlns="http://www.w3.org/2000/svg">
<g clip-path="url(#clip0_2293_271)">
<path d="M26 28C27.0452 28 28.0529 28.1605 29 28.458V34C28.1643 33.3722 27.1257 33 26 33C23.2386 33 21 35.2386 21 38C21 40.7614 23.2386 43 26 43C28.7614 43 31 40.7614 31 38H36C36 43.5228 31.5228 48 26 48C20.4772 48 16 43.5228 16 38C16 32.4772 20.4772 28 26 28Z" fill="black"/>
<line x1="33.5" y1="38" x2="33.5" y2="14" stroke="black" stroke-width="5"/>
<path d="M36 14C36 20.0751 40.9249 25 47 25C47.3372 25 47.6706 24.9818 48 24.9521V29.9678C47.6693 29.9882 47.3359 30 47 30C38.1634 30 31 22.8366 31 14H36ZM47 -2C49.8119 -2 52.4539 -1.2738 54.75 0H39.25C41.5461 -1.2738 44.1881 -2 47 -2Z" fill="black"/>
<rect x="6.5" y="6.5" width="51" height="51" rx="13.5" stroke="black" stroke-width="5"/>
</g>
<defs>
<clipPath id="clip0_2293_271">
<rect width="64" height="64" fill="white"/>
</clipPath>
</defs>
</svg>
