<svg width="64" height="64" viewBox="0 0 64 64" fill="none" xmlns="http://www.w3.org/2000/svg">
<path d="M8 12L56 12" stroke="black" stroke-width="5" stroke-linecap="round"/>
<path d="M24 4L40 4" stroke="black" stroke-width="5" stroke-linecap="round"/>
<path d="M16 12H48H16ZM50.5 48C50.5 53.799 45.799 58.5 40 58.5H24C18.201 58.5 13.5 53.799 13.5 48H18.5C18.5 51.0376 20.9624 53.5 24 53.5H40C43.0376 53.5 45.5 51.0376 45.5 48H50.5ZM24 58.5C18.201 58.5 13.5 53.799 13.5 48V12H18.5V48C18.5 51.0376 20.9624 53.5 24 53.5V58.5ZM50.5 12V48C50.5 53.799 45.799 58.5 40 58.5V53.5C43.0376 53.5 45.5 51.0376 45.5 48V12H50.5Z" fill="black"/>
</svg>
