<svg width="64" height="64" viewBox="0 0 64 64" fill="none" xmlns="http://www.w3.org/2000/svg">
<path d="M32 1.5C40.0081 1.5 46.5 7.99187 46.5 16V24H41.5V16C41.5 10.7533 37.2467 6.5 32 6.5C26.7533 6.5 22.5 10.7533 22.5 16V24H17.5V16C17.5 7.99187 23.9919 1.5 32 1.5Z" fill="black"/>
<path d="M44 20C50.6274 20 56 25.3726 56 32V52C56 58.6274 50.6274 64 44 64H20C13.3726 64 8 58.6274 8 52V32C8 25.3726 13.3726 20 20 20H44ZM32 35.5C30.6196 35.5002 29.5002 36.6196 29.5 38V46C29.5002 47.3804 30.6196 48.4998 32 48.5C33.3804 48.4998 34.4998 47.3804 34.5 46V38C34.4999 36.6195 33.3805 35.5002 32 35.5Z" fill="black"/>
</svg>
