<svg width="64" height="64" viewBox="0 0 64 64" fill="none" xmlns="http://www.w3.org/2000/svg">
<path d="M32 62C46.3594 62 58 50.3594 58 36H53C53 47.598 43.598 57 32 57C20.402 57 11 47.598 11 36H6C6 50.3594 17.6406 62 32 62Z" fill="black"/>
<mask id="path-2-inside-1_2304_2" fill="white">
<path d="M22 12C22 6.47715 26.4772 2 32 2C37.5228 2 42 6.47715 42 12V36C42 41.5228 37.5228 46 32 46C26.4772 46 22 41.5228 22 36V12Z"/>
</mask>
<path d="M42 12H37V36H42H47V12H42ZM22 36H27V12H22H17V36H22ZM32 46V41C29.2386 41 27 38.7614 27 36H22H17C17 44.2843 23.7157 51 32 51V46ZM42 36H37C37 38.7614 34.7614 41 32 41V46V51C40.2843 51 47 44.2843 47 36H42ZM32 2V7C34.7614 7 37 9.23858 37 12H42H47C47 3.71573 40.2843 -3 32 -3V2ZM32 2V-3C23.7157 -3 17 3.71573 17 12H22H27C27 9.23858 29.2386 7 32 7V2Z" fill="black" mask="url(#path-2-inside-1_2304_2)"/>
</svg>
