<svg width="64" height="64" viewBox="0 0 64 64" fill="none" xmlns="http://www.w3.org/2000/svg">
<path d="M29 28C29.7641 28 30.5077 28.0877 31.2227 28.25V33.5205C30.5531 33.1876 29.7985 33 29 33C26.2386 33 24 35.2386 24 38C24 40.7614 26.2386 43 29 43C31.7614 43 34 40.7614 34 38H39C39 43.5228 34.5228 48 29 48C23.4772 48 19 43.5228 19 38C19 32.4772 23.4772 28 29 28Z" fill="black"/>
<line x1="36.5" y1="38" x2="36.5" y2="16" stroke="black" stroke-width="5"/>
<path d="M39 16C39 18.7614 41.2386 21 44 21C44.3425 21 44.6769 20.965 45 20.8994V25.9492C44.671 25.9819 44.3375 26 44 26C38.4772 26 34 21.5228 34 16H39Z" fill="black"/>
<rect x="4.5" y="4.5" width="55" height="55" rx="13.5" stroke="black" stroke-width="5"/>
</svg>
