<svg width="960" height="832" viewBox="0 0 960 832" fill="none" xmlns="http://www.w3.org/2000/svg">
<rect width="960" height="832" fill="white"/>
<path d="M8 32L56 32" stroke="black" stroke-width="5" stroke-linecap="round"/>
<path d="M32 56L32 8" stroke="black" stroke-width="5" stroke-linecap="round"/>
<path d="M148 48V16" stroke="black" stroke-width="5" stroke-linecap="round"/>
<path d="M160 56V8" stroke="black" stroke-width="5" stroke-linecap="round"/>
<path d="M172 48V16" stroke="black" stroke-width="5" stroke-linecap="round"/>
<path d="M136 28V36" stroke="black" stroke-width="5" stroke-linecap="round"/>
<path d="M184 28V36" stroke="black" stroke-width="5" stroke-linecap="round"/>
<path d="M270 50L296 50" stroke="black" stroke-width="5" stroke-linecap="round"/>
<path d="M270 50L270 24" stroke="black" stroke-width="5" stroke-linecap="round"/>
<path d="M306 14L270 50" stroke="black" stroke-width="5" stroke-linecap="round"/>
<path d="M434 50L408 50" stroke="black" stroke-width="5" stroke-linecap="round"/>
<path d="M434 50L434 24" stroke="black" stroke-width="5" stroke-linecap="round"/>
<path d="M398 14L434 50" stroke="black" stroke-width="5" stroke-linecap="round"/>
<path d="M538.944 6.5H549.056C551.139 6.5 553.043 7.67697 553.975 9.54004L555.211 12.0127C555.973 13.5372 557.532 14.5 559.236 14.5H564C569.247 14.5 573.5 18.7533 573.5 24V44C573.5 49.2467 569.247 53.5 564 53.5H524C518.753 53.5 514.5 49.2467 514.5 44V24C514.5 18.7533 518.753 14.5 524 14.5H528.764C530.468 14.5 532.027 13.5372 532.789 12.0127L534.025 9.54004C534.957 7.67697 536.861 6.5 538.944 6.5Z" stroke="black" stroke-width="5"/>
<circle cx="544" cy="33" r="8.5" stroke="black" stroke-width="5"/>
<path d="M648 16L664 32" stroke="black" stroke-width="5" stroke-linecap="round"/>
<path d="M648 48L664 32" stroke="black" stroke-width="5" stroke-linecap="round"/>
<path d="M696 48H680" stroke="black" stroke-width="5" stroke-linecap="round"/>
<path d="M772 32L788 16" stroke="black" stroke-width="5" stroke-linecap="round"/>
<path d="M772 32L788 48" stroke="black" stroke-width="5" stroke-linecap="round"/>
<path d="M828 32L812 16" stroke="black" stroke-width="5" stroke-linecap="round"/>
<path d="M828 32L812 48" stroke="black" stroke-width="5" stroke-linecap="round"/>
<path d="M936 24V4" stroke="black" stroke-width="5" stroke-linecap="round"/>
<path d="M936 24L956 24" stroke="black" stroke-width="5" stroke-linecap="round"/>
<path d="M920 40V60" stroke="black" stroke-width="5" stroke-linecap="round"/>
<path d="M920 40L900 40" stroke="black" stroke-width="5" stroke-linecap="round"/>
<path d="M32 132.5C47.1878 132.5 59.5 144.812 59.5 160C59.5 175.188 47.1878 187.5 32 187.5C16.8122 187.5 4.5 175.188 4.5 160C4.5 144.812 16.8122 132.5 32 132.5Z" stroke="black" stroke-width="5"/>
<path d="M43 155C38 144 20 146 20 160C20 174 38 176 43 165" stroke="black" stroke-width="5"/>
<path d="M160 184L178 166" stroke="black" stroke-width="5" stroke-linecap="round"/>
<path d="M160 184L142 166" stroke="black" stroke-width="5" stroke-linecap="round"/>
<path d="M160 136L160 184" stroke="black" stroke-width="5" stroke-linecap="round"/>
<path d="M288 176L272 160" stroke="black" stroke-width="5" stroke-linecap="round"/>
<path d="M304 160L288 176" stroke="black" stroke-width="5" stroke-linecap="round"/>
<path d="M288 132L288 176" stroke="black" stroke-width="5" stroke-linecap="round"/>
<path d="M260 188L316 188" stroke="black" stroke-width="5" stroke-linecap="round"/>
<path d="M396.482 169.74L430.496 135.726C431.081 135.14 432.031 135.14 432.617 135.726L438.274 141.383C438.86 141.969 438.86 142.919 438.274 143.504L403.968 177.81L395.213 178.846L396.482 169.74Z" stroke="black" stroke-width="5"/>
<path d="M424 180H440" stroke="black" stroke-width="5" stroke-linecap="round"/>
<path d="M564 140V160" stroke="black" stroke-width="5" stroke-linecap="round"/>
<path d="M564 140L544 140" stroke="black" stroke-width="5" stroke-linecap="round"/>
<path d="M524 180V160" stroke="black" stroke-width="5" stroke-linecap="round"/>
<path d="M524 180L544 180" stroke="black" stroke-width="5" stroke-linecap="round"/>
<g clip-path="url(#clip0_2293_12)">
<path d="M692.412 134.974C692.799 136.246 693 137.569 693 138.901V139.846L692.52 143.689L692.385 144.767L693.079 145.601L694.399 147.185C695.06 147.977 695.627 148.843 696.088 149.766C697.017 151.623 697.5 153.672 697.5 155.748V156.919C697.5 158.636 697.172 160.338 696.534 161.933L696.298 162.524C695.951 163.392 695.514 164.222 694.996 164.999L694.799 165.295C694.306 166.035 693.741 166.724 693.112 167.353L692.068 168.396C691.042 169.422 689.857 170.276 688.56 170.925L687.536 171.437C687.206 171.601 686.865 171.743 686.516 171.859L685.55 172.182C684.456 172.546 683.45 173.129 682.592 173.893L682.233 174.231C681.763 174.701 681.5 175.339 681.5 176.002V213C681.5 217.694 677.694 221.5 673 221.5C668.306 221.5 664.5 217.694 664.5 213V176.781C664.5 175.175 663.407 173.775 661.849 173.386L660.311 173.001C659.355 172.762 658.428 172.419 657.547 171.979L657.44 171.925C656.143 171.276 654.958 170.422 653.932 169.396L653.572 169.036C653.121 168.584 652.701 168.102 652.317 167.591L651.558 166.577C650.687 165.416 650.01 164.123 649.551 162.746L649.192 161.673C648.734 160.296 648.5 158.854 648.5 157.403V156.576C648.5 155.139 648.732 153.71 649.187 152.347C649.843 150.377 650.95 148.586 652.418 147.117L653.651 145.884L653.009 141.386C652.712 139.311 652.904 137.195 653.566 135.207L653.581 135.162L654.746 135.551C656.123 136.01 657.416 136.687 658.577 137.558L660.5 139L661.548 139.786L662.791 139.372L665.648 138.419L668.937 137.762C669.808 137.587 670.695 137.5 671.584 137.5H672.416C673.305 137.5 674.192 137.587 675.063 137.762L678.351 138.419L681.209 139.372L682.452 139.786L683.5 139L684.915 137.938C686.354 136.859 687.996 136.078 689.741 135.642L692.412 134.974Z" stroke="black" stroke-width="5"/>
<path d="M642 176C646.514 174.871 651.136 177.409 652.608 181.823L652.667 182C653.419 184.257 655.782 185.554 658.091 184.977L662 184" stroke="black" stroke-width="5" stroke-linecap="round"/>
</g>
<path d="M790 184V136" stroke="black" stroke-width="5" stroke-linecap="round"/>
<path d="M810 184V136" stroke="black" stroke-width="5" stroke-linecap="round"/>
<path d="M776 150H824" stroke="black" stroke-width="5" stroke-linecap="round"/>
<path d="M776 170H824" stroke="black" stroke-width="5" stroke-linecap="round"/>
<path d="M956 148C956 164 938 176 928 184C918 176 900 164 900 148C900 128 928 128 928 148C928 128 956 128 956 148Z" stroke="black" stroke-width="5"/>
<path d="M60 276C60 292 42 304 32 312C22 304 3.99998 292 3.99998 276C3.99998 256 32 256 32 276C32 256 60 256 60 276Z" fill="black" stroke="black" stroke-width="5"/>
<path d="M155.349 262.386C158.029 259.872 161.971 259.872 164.651 262.386L184.99 281.457C186.561 282.93 187.5 285.1 187.5 287.425V307.646C187.5 312.15 184.134 315.5 180.339 315.5H139.661C135.866 315.5 132.5 312.15 132.5 307.646V287.425C132.5 285.1 133.438 282.93 135.009 281.457L155.349 262.386Z" stroke="black" stroke-width="5"/>
<path d="M276 258.5H287.396C289.742 258.5 292.006 259.369 293.75 260.938L306.355 272.283C308.357 274.085 309.5 276.652 309.5 279.345V308C309.5 313.247 305.247 317.5 300 317.5H276C270.753 317.5 266.5 313.247 266.5 308V268C266.5 262.753 270.753 258.5 276 258.5Z" stroke="black" stroke-width="5"/>
<path d="M288 270V276C288 278.209 289.791 280 292 280H298" stroke="black" stroke-width="5" stroke-linecap="round"/>
<path d="M416 300V288" stroke="black" stroke-width="5" stroke-linecap="round"/>
<path d="M416 260.5C431.188 260.5 443.5 272.812 443.5 288C443.5 303.188 431.188 315.5 416 315.5C400.812 315.5 388.5 303.188 388.5 288C388.5 272.812 400.812 260.5 416 260.5Z" stroke="black" stroke-width="5"/>
<path d="M416 276V278" stroke="black" stroke-width="5" stroke-linecap="round"/>
<rect x="516.5" y="260.5" width="55" height="55" rx="13.5" stroke="black" stroke-width="5"/>
<circle cx="544" cy="288" r="10.5" stroke="black" stroke-width="5"/>
<circle cx="559" cy="273" r="2" stroke="black" stroke-width="4"/>
<g clip-path="url(#clip1_2293_12)">
<path d="M652 278C660 292 672 296 672 296" stroke="black" stroke-width="5" stroke-linecap="round"/>
<path d="M648 300C648 300 668 292 672 268" stroke="black" stroke-width="5" stroke-linecap="round"/>
<path d="M644 268H684" stroke="black" stroke-width="5" stroke-linecap="round"/>
<path d="M664 268V260" stroke="black" stroke-width="5" stroke-linecap="round"/>
<path d="M696 308L676 308" stroke="black" stroke-width="5" stroke-linecap="round"/>
<path d="M686 288L672 316" stroke="black" stroke-width="5" stroke-linecap="round"/>
<path d="M700 316L686 288" stroke="black" stroke-width="5" stroke-linecap="round"/>
</g>
<path d="M776 288L794 306" stroke="black" stroke-width="5" stroke-linecap="round"/>
<path d="M776 288L794 270" stroke="black" stroke-width="5" stroke-linecap="round"/>
<path d="M824 288L776 288" stroke="black" stroke-width="5" stroke-linecap="round"/>
<path d="M944 288L928 304" stroke="black" stroke-width="5" stroke-linecap="round"/>
<path d="M928 272L944 288" stroke="black" stroke-width="5" stroke-linecap="round"/>
<path d="M900 288L944 288" stroke="black" stroke-width="5" stroke-linecap="round"/>
<path d="M956 316L956 260" stroke="black" stroke-width="5" stroke-linecap="round"/>
<rect x="10.5" y="406.5" width="43" height="39" rx="9.5" stroke="black" stroke-width="5"/>
<path d="M32 385.5C40.0081 385.5 46.5 391.992 46.5 400V408H41.5V400C41.5 394.753 37.2467 390.5 32 390.5C26.7533 390.5 22.5 394.753 22.5 400V408H17.5V400C17.5 391.992 23.9919 385.5 32 385.5Z" fill="black"/>
<path d="M32 430L32 422" stroke="black" stroke-width="5" stroke-linecap="round"/>
<path d="M160 385.5C168.008 385.5 174.5 391.992 174.5 400V408H169.5V400C169.5 394.753 165.247 390.5 160 390.5C154.753 390.5 150.5 394.753 150.5 400V408H145.5V400C145.5 391.992 151.992 385.5 160 385.5Z" fill="black"/>
<path d="M172 404C178.627 404 184 409.373 184 416V436C184 442.627 178.627 448 172 448H148C141.373 448 136 442.627 136 436V416C136 409.373 141.373 404 148 404H172ZM160 419.5C158.62 419.5 157.5 420.62 157.5 422V430C157.5 431.38 158.62 432.5 160 432.5C161.38 432.5 162.5 431.38 162.5 430V422C162.5 420.62 161.38 419.5 160 419.5Z" fill="black"/>
<rect x="266.5" y="410.5" width="43" height="35" rx="9.5" stroke="black" stroke-width="5"/>
<path d="M279.5 412C279.5 412.338 279.518 412.671 279.553 413H274.535C274.513 412.67 274.5 412.336 274.5 412V408H279.5V412ZM289 385.5C297.008 385.5 303.5 391.992 303.5 400V412C303.5 412.336 303.487 412.67 303.465 413H298.447C298.482 412.671 298.5 412.338 298.5 412V400C298.5 394.753 294.247 390.5 289 390.5C283.753 390.5 279.5 394.753 279.5 400H274.5C274.5 391.992 280.992 385.5 289 385.5Z" fill="black"/>
<path d="M288 432L288 424" stroke="black" stroke-width="5" stroke-linecap="round"/>
<path d="M277 400L277 399" stroke="black" stroke-width="5" stroke-linecap="round"/>
<path d="M408 392V408" stroke="black" stroke-width="5" stroke-linecap="round"/>
<path d="M392 408H408" stroke="black" stroke-width="5" stroke-linecap="round"/>
<path d="M392 392H408" stroke="black" stroke-width="5" stroke-linecap="round"/>
<path d="M392 440V392" stroke="black" stroke-width="5" stroke-linecap="round"/>
<path d="M424 392V408" stroke="black" stroke-width="5" stroke-linecap="round"/>
<path d="M440 408H424" stroke="black" stroke-width="5" stroke-linecap="round"/>
<path d="M440 392H424" stroke="black" stroke-width="5" stroke-linecap="round"/>
<path d="M440 440V392" stroke="black" stroke-width="5" stroke-linecap="round"/>
<path d="M408 424V440" stroke="black" stroke-width="5" stroke-linecap="round"/>
<path d="M424 440H408" stroke="black" stroke-width="5" stroke-linecap="round"/>
<path d="M424 424H408" stroke="black" stroke-width="5" stroke-linecap="round"/>
<path d="M424 440V424" stroke="black" stroke-width="5" stroke-linecap="round"/>
<rect x="514.5" y="394.5" width="59" height="43" rx="9.5" stroke="black" stroke-width="5"/>
<path d="M562 406.253L548.054 419.037C545.76 421.14 542.24 421.14 539.946 419.037L526 406.254" stroke="black" stroke-width="5" stroke-linecap="round"/>
<path d="M648 404H696" stroke="black" stroke-width="5" stroke-linecap="round"/>
<path d="M648 428H696" stroke="black" stroke-width="5" stroke-linecap="round"/>
<path d="M800 446C814.359 446 826 434.359 826 420H821C821 431.598 811.598 441 800 441C788.402 441 779 431.598 779 420H774C774 434.359 785.641 446 800 446Z" fill="black"/>
<mask id="path-99-inside-1_2293_12" fill="white">
<path d="M790 396C790 390.477 794.477 386 800 386C805.523 386 810 390.477 810 396V420C810 425.523 805.523 430 800 430C794.477 430 790 425.523 790 420V396Z"/>
</mask>
<path d="M810 396H805V420H810H815V396H810ZM790 420H795V396H790H785V420H790ZM800 430V425C797.239 425 795 422.761 795 420H790H785C785 428.284 791.716 435 800 435V430ZM810 420H805C805 422.761 802.761 425 800 425V430V435C808.284 435 815 428.284 815 420H810ZM800 386V391C802.761 391 805 393.239 805 396H810H815C815 387.716 808.284 381 800 381V386ZM800 386V381C791.716 381 785 387.716 785 396H790H795C795 393.239 797.239 391 800 391V386Z" fill="black" mask="url(#path-99-inside-1_2293_12)"/>
<path d="M948 436L908 396" stroke="black" stroke-width="5" stroke-linecap="round"/>
<path d="M908 436L948 396" stroke="black" stroke-width="5" stroke-linecap="round"/>
<path d="M44 516V540" stroke="black" stroke-width="5" stroke-linecap="round"/>
<path d="M8 528H28" stroke="black" stroke-width="5" stroke-linecap="round"/>
<path d="M56 530.5C57.3807 530.5 58.5 529.381 58.5 528C58.5 526.619 57.3807 525.5 56 525.5V528V530.5ZM42 528V530.5H56V528V525.5H42V528Z" fill="black"/>
<path d="M20 548V572" stroke="black" stroke-width="5" stroke-linecap="round"/>
<path d="M56 560H36" stroke="black" stroke-width="5" stroke-linecap="round"/>
<path d="M8 562.5C6.61929 562.5 5.5 561.381 5.5 560C5.5 558.619 6.61929 557.5 8 557.5V560V562.5ZM22 560V562.5H8V560V557.5H22V560Z" fill="black"/>
<path d="M176 515L184 572" stroke="black" stroke-width="5" stroke-linecap="round"/>
<path d="M160 532L168 572" stroke="black" stroke-width="5" stroke-linecap="round"/>
<path d="M184 572H168" stroke="black" stroke-width="5" stroke-linecap="round"/>
<path d="M143.5 515L136 572" stroke="black" stroke-width="5" stroke-linecap="round"/>
<path d="M160 532L152 572" stroke="black" stroke-width="5" stroke-linecap="round"/>
<path d="M136 572H152" stroke="black" stroke-width="5" stroke-linecap="round"/>
<path d="M144 515H176" stroke="black" stroke-width="5" stroke-linecap="round"/>
<path d="M281.5 528C281.5 524.962 279.038 522.5 276 522.5C272.962 522.5 270.5 524.962 270.5 528V560C270.5 563.038 272.962 565.5 276 565.5C279.038 565.5 281.5 563.038 281.5 560V528Z" stroke="black" stroke-width="5"/>
<path d="M305.5 528C305.5 524.962 303.038 522.5 300 522.5C296.962 522.5 294.5 524.962 294.5 528V560C294.5 563.038 296.962 565.5 300 565.5C303.038 565.5 305.5 563.038 305.5 560V528Z" stroke="black" stroke-width="5"/>
<g clip-path="url(#clip2_2293_12)">
<path d="M416 540C422.627 540 428 534.627 428 528C428 521.373 422.627 516 416 516C409.373 516 404 521.373 404 528C404 534.627 409.373 540 416 540Z" stroke="black" stroke-width="5"/>
<path d="M444.5 576C444.5 591.74 431.74 604.5 416 604.5C400.26 604.5 387.5 591.74 387.5 576H392.5C392.5 588.979 403.021 599.5 416 599.5C428.979 599.5 439.5 588.979 439.5 576H444.5ZM416 547.5C430.382 547.5 442.275 558.154 444.22 572H439.159C437.26 560.927 427.615 552.5 416 552.5C404.385 552.5 394.74 560.927 392.841 572H387.78C389.725 558.154 401.618 547.5 416 547.5Z" fill="black"/>
</g>
<path d="M532.225 521.865L561.085 538.356C565.452 540.852 565.452 547.148 561.085 549.644L532.225 566.135C527.892 568.611 522.5 565.482 522.5 560.491V527.509C522.5 522.518 527.892 519.389 532.225 521.865Z" stroke="black" stroke-width="5"/>
<path d="M660 562L696 526" stroke="black" stroke-width="5" stroke-linecap="round"/>
<path d="M644 546L660 562" stroke="black" stroke-width="5" stroke-linecap="round"/>
<path d="M776 544H824" stroke="black" stroke-width="5" stroke-linecap="round"/>
<path d="M952 544L934 526" stroke="black" stroke-width="5" stroke-linecap="round"/>
<path d="M952 544L934 562" stroke="black" stroke-width="5" stroke-linecap="round"/>
<path d="M904 544L952 544" stroke="black" stroke-width="5" stroke-linecap="round"/>
<path d="M19.1514 649.866L52.2445 666.357C57.2518 668.852 57.2518 675.148 52.2445 677.643L19.1514 694.134C14.1825 696.61 8 693.481 8 688.491V655.509C8 650.519 14.1825 647.39 19.1514 649.866Z" stroke="black" stroke-width="5"/>
<path d="M8 672H32" stroke="black" stroke-width="5" stroke-linecap="round"/>
<path d="M164 676L184 696" stroke="black" stroke-width="5" stroke-linecap="round"/>
<path d="M150 680C159.941 680 168 671.941 168 662C168 652.059 159.941 644 150 644C140.059 644 132 652.059 132 662C132 671.941 140.059 680 150 680Z" stroke="black" stroke-width="5"/>
<path d="M292.75 645.629L308.463 654.701C311.402 656.398 313.213 659.534 313.213 662.928V681.072C313.213 684.466 311.402 687.602 308.463 689.299L292.75 698.371C289.811 700.068 286.189 700.068 283.25 698.371L267.537 689.299C264.598 687.602 262.787 684.466 262.787 681.072V662.928C262.787 659.534 264.598 656.398 267.537 654.701L283.25 645.629C286.189 643.932 289.811 643.932 292.75 645.629Z" stroke="black" stroke-width="5"/>
<path d="M288 682.5C293.799 682.5 298.5 677.799 298.5 672C298.5 666.201 293.799 661.5 288 661.5C282.201 661.5 277.5 666.201 277.5 672C277.5 677.799 282.201 682.5 288 682.5Z" stroke="black" stroke-width="5"/>
<path d="M416 670.5C419.038 670.5 421.5 672.962 421.5 676C421.5 679.038 419.038 681.5 416 681.5C412.962 681.5 410.5 679.038 410.5 676C410.5 672.962 412.962 670.5 416 670.5Z" stroke="black" stroke-width="5"/>
<path d="M416 656C427.046 656 436 664.954 436 676C436 681.523 433.762 686.523 430.143 690.143L426.606 686.606C429.321 683.892 431 680.142 431 676C431 667.716 424.284 661 416 661C407.716 661 401 667.716 401 676C401 680.142 402.679 683.892 405.394 686.606L401.857 690.143C398.238 686.523 396 681.523 396 676C396 664.954 404.954 656 416 656Z" fill="black"/>
<path d="M416.826 644.011C434.117 644.449 448 658.603 448 676L447.989 676.826C447.774 685.335 444.236 693.016 438.626 698.626L435.092 695.092C439.978 690.206 443 683.456 443 676C443 661.088 430.912 649 416 649C401.088 649 389 661.088 389 676C389 683.456 392.022 690.206 396.908 695.092L393.373 698.627C387.763 693.017 384.226 685.335 384.011 676.826L384 676C384 658.327 398.327 644 416 644L416.826 644.011Z" fill="black"/>
<path d="M526 654H552" stroke="black" stroke-width="5" stroke-linecap="round"/>
<path d="M526 654L526 680" stroke="black" stroke-width="5" stroke-linecap="round"/>
<path d="M562 690L526 654" stroke="black" stroke-width="5" stroke-linecap="round"/>
<path d="M690 654H664" stroke="black" stroke-width="5" stroke-linecap="round"/>
<path d="M690 654L690 680" stroke="black" stroke-width="5" stroke-linecap="round"/>
<path d="M654 690L690 654" stroke="black" stroke-width="5" stroke-linecap="round"/>
<path d="M776 652H824" stroke="black" stroke-width="5" stroke-linecap="round"/>
<path d="M792 644H808" stroke="black" stroke-width="5" stroke-linecap="round"/>
<path d="M784 652H816V690C816 693.314 813.314 696 810 696H790C786.686 696 784 693.314 784 690V652Z" stroke="black" stroke-width="5"/>
<path d="M925 668C925.764 668 926.508 668.088 927.223 668.25V673.521C926.553 673.188 925.799 673 925 673C922.239 673 920 675.239 920 678C920 680.761 922.239 683 925 683C927.761 683 930 680.761 930 678H935C935 683.523 930.523 688 925 688C919.477 688 915 683.523 915 678C915 672.477 919.477 668 925 668Z" fill="black"/>
<line x1="932.5" y1="678" x2="932.5" y2="656" stroke="black" stroke-width="5"/>
<path d="M935 656C935 658.761 937.239 661 940 661C940.343 661 940.677 660.965 941 660.899V665.949C940.671 665.982 940.338 666 940 666C934.477 666 930 661.523 930 656H935Z" fill="black"/>
<rect x="900.5" y="644.5" width="55" height="55" rx="13.5" stroke="black" stroke-width="5"/>
<path d="M32 776L14 794" stroke="black" stroke-width="5" stroke-linecap="round"/>
<path d="M32 776L50 794" stroke="black" stroke-width="5" stroke-linecap="round"/>
<path d="M32 824L32 776" stroke="black" stroke-width="5" stroke-linecap="round"/>
<rect x="130.5" y="780.5" width="39" height="39" rx="9.5" stroke="black" stroke-width="5"/>
<path d="M180.933 786.449C184.586 783.994 189.5 786.613 189.5 791.015V808.985C189.5 813.387 184.586 816.006 180.933 813.551L171.933 807.503C170.412 806.481 169.5 804.769 169.5 802.938V797.062C169.5 795.231 170.412 793.519 171.933 792.497L180.933 786.449Z" stroke="black" stroke-width="5"/>
<rect x="258.5" y="780.5" width="59" height="39" rx="9.5" stroke="black" stroke-width="5"/>
<path d="M292.901 800L284.5 804.725V795.274L292.901 800Z" fill="black" stroke="black" stroke-width="5"/>
<defs>
<clipPath id="clip0_2293_12">
<rect width="64" height="64" fill="white" transform="translate(640 128)"/>
</clipPath>
<clipPath id="clip1_2293_12">
<rect width="64" height="64" fill="white" transform="matrix(-1 0 0 -1 704 320)"/>
</clipPath>
<clipPath id="clip2_2293_12">
<rect width="64" height="64" fill="white" transform="translate(384 512)"/>
</clipPath>
</defs>
</svg>
